<svg width="41" height="43" viewBox="0 0 41 43" fill="none" xmlns="http://www.w3.org/2000/svg">
<path d="M3.83488e-06 21.7021C3.97419e-06 20.9053 0.316928 20.1413 0.88088 19.5785L18.3809 2.11473C19.552 0.94608 21.4481 0.94608 22.6191 2.11473L40.1191 19.5785C40.6831 20.1413 41 20.9053 41 21.7021L41 39.8636C41 41.5205 39.6569 42.8636 38 42.8636L3 42.8636C1.34315 42.8636 3.69724e-07 41.5205 6.59417e-07 39.8636L3.83488e-06 21.7021Z" fill="black"/>
<circle cx="28.7493" cy="27.7696" r="6.44335" transform="rotate(45 28.7493 27.7696)" fill="white"/>
<circle cx="12.246" cy="27.7694" r="6.49535" transform="rotate(45 12.246 27.7694)" fill="white"/>
<rect x="31.6818" y="23.9761" width="6.52273" height="6.52273" rx="3.26136" transform="rotate(90 31.6818 23.9761)" fill="black"/>
<rect x="32.4152" y="26.0909" width="2.79545" height="2.79545" rx="1.39773" transform="rotate(90 32.4152 26.0909)" fill="white"/>
<rect x="15.8408" y="23.9761" width="6.52273" height="6.52273" rx="3.26136" transform="rotate(90 15.8408 23.9761)" fill="black"/>
<rect x="16.7727" y="26.0909" width="2.79545" height="2.79545" rx="1.39773" transform="rotate(90 16.7727 26.0909)" fill="white"/>
</svg>
